# xmcd
#
# Track frame offsets: 
#        150
#        22309
#        44011
#        60208
#        77027
#        96272
#        113427
#        131232
#        147372
#        163197
#        187380
#        204423
#        225056
#        242271
#        259776
#        285537
#        303785
#        318376
#        332593
#
# Disc length: 4664 seconds
#
# Revision: 1
# Processed by: cddbd v1.5.1PL2 Copyright (c) Steve Scherf et al.
# Submitted via: ExactAudioCopy v0.95b4
#
DISCID=06123613
DTITLE=Cesaria Evora - The Best (RCA)
DYEAR=1999
DGENRE=World
TTITLE0=Besame Mucho
TTITLE1=Vaquinaha Mansa
TTITLE2=Sangue De Beirona
TTITLE3=Sodade
TTITLE4=Flor Di Nha Esperanca
TTITLE5=Pettit Pays
TTITLE6=Paraiso Di Atlantico
TTITLE7=Cinturao Tem Mele
TTITLE8=Maria Elena
TTITLE9=Cize
TTITLE10=Nho Antone Escaderode
TTITLE11=Todo Tem Se Limite
TTITLE12=Sorte
TTITLE13=Nha Cancera Na Tem Medida
TTITLE14=Luiza
TTITLE15=Cabo Verde Manda Mantenha
TTITLE16=Partida
TTITLE17=Sabine Largam
TTITLE18=Carnaval De Sao Vicente
EXTD=
EXTT0=
EXTT1=
EXTT2=
EXTT3=
EXTT4=
EXTT5=
EXTT6=
EXTT7=
EXTT8=
EXTT9=
EXTT10=
EXTT11=
EXTT12=
EXTT13=
EXTT14=
EXTT15=
EXTT16=
EXTT17=
EXTT18=
PLAYORDER=
